<svg width="2261" height="1272" viewBox="0 0 2261 1272" fill="none" xmlns="http://www.w3.org/2000/svg">
<g clip-path="url(#clip0_764_928)">
<rect width="2261" height="1272" fill="#2F3132"/>
<g opacity="0.15">
<mask id="mask0_764_928" style="mask-type:alpha" maskUnits="userSpaceOnUse" x="-660" y="-669" width="3827" height="3023">
<path fill-rule="evenodd" clip-rule="evenodd" d="M691.844 -396.844C364.002 -296.301 81.3388 -120.035 -119.877 109.338L-652.102 716.084C-652.318 716.33 -652.744 716.39 -653.053 716.218C-653.362 716.046 -653.437 715.707 -653.221 715.461L-120.996 108.715C80.3756 -120.835 363.258 -297.238 691.354 -397.859L1558.96 -663.964C1559.31 -664.072 1559.7 -663.932 1559.84 -663.652C1559.97 -663.372 1559.8 -663.057 1559.45 -662.949L691.844 -396.844Z" fill="#30CCED" stroke="black" stroke-width="11" stroke-miterlimit="10" stroke-linecap="round"/>
<path fill-rule="evenodd" clip-rule="evenodd" d="M729.658 -358.372C401.816 -257.829 119.152 -81.5629 -82.0634 147.81L-614.289 754.555C-614.505 754.801 -614.93 754.861 -615.239 754.69C-615.548 754.518 -615.624 754.179 -615.408 753.932L-83.1824 147.187C118.189 -82.3633 401.072 -258.766 729.167 -359.387L1596.77 -625.492C1597.12 -625.6 1597.52 -625.46 1597.65 -625.18C1597.79 -624.9 1597.61 -624.585 1597.26 -624.478L729.658 -358.372Z" fill="#30CCED" stroke="black" stroke-width="11" stroke-miterlimit="10" stroke-linecap="round"/>
<path fill-rule="evenodd" clip-rule="evenodd" d="M767.471 -319.9C439.629 -219.357 156.965 -43.0907 -44.2504 186.282L-576.476 793.027C-576.692 793.273 -577.117 793.334 -577.426 793.162C-577.735 792.99 -577.811 792.651 -577.595 792.405L-45.3694 185.659C156.002 -43.8912 438.885 -220.294 766.98 -320.915L1634.58 -587.02C1634.93 -587.128 1635.33 -586.988 1635.46 -586.708C1635.6 -586.428 1635.42 -586.113 1635.07 -586.005L767.471 -319.9Z" fill="#30CCED" stroke="black" stroke-width="11" stroke-miterlimit="10" stroke-linecap="round"/>
<path fill-rule="evenodd" clip-rule="evenodd" d="M805.285 -281.429C477.443 -180.886 194.779 -4.61955 -6.43647 224.753L-538.662 831.499C-538.878 831.745 -539.303 831.805 -539.612 831.633C-539.921 831.461 -539.997 831.122 -539.781 830.876L-7.55543 224.13C193.816 -5.41996 476.699 -181.823 804.794 -282.444L1672.4 -548.549C1672.75 -548.657 1673.14 -548.517 1673.28 -548.237C1673.41 -547.957 1673.24 -547.642 1672.89 -547.534L805.285 -281.429Z" fill="#30CCED" stroke="black" stroke-width="11" stroke-miterlimit="10" stroke-linecap="round"/>
<path fill-rule="evenodd" clip-rule="evenodd" d="M840.998 -245.095C513.156 -144.552 230.493 31.7147 29.2769 261.087L-502.949 867.833C-503.165 868.079 -503.59 868.139 -503.899 867.967C-504.208 867.795 -504.284 867.456 -504.068 867.21L28.158 260.464C229.529 30.9143 512.412 -145.489 840.507 -246.109L1708.07 -512.257C1708.42 -512.365 1708.81 -512.226 1708.95 -511.945C1709.09 -511.665 1708.91 -511.351 1708.56 -511.243L840.998 -245.095Z" fill="#30CCED" stroke="black" stroke-width="11" stroke-miterlimit="10" stroke-linecap="round"/>
<path fill-rule="evenodd" clip-rule="evenodd" d="M878.811 -206.623C550.969 -106.08 268.306 70.1866 67.0899 299.559L-465.136 906.305C-465.352 906.551 -465.777 906.611 -466.086 906.439C-466.395 906.267 -466.471 905.928 -466.255 905.682L65.9709 298.936C267.342 69.3862 550.225 -107.017 878.32 -207.637L1745.88 -473.785C1746.23 -473.893 1746.63 -473.754 1746.76 -473.474C1746.9 -473.193 1746.72 -472.879 1746.37 -472.771L878.811 -206.623Z" fill="#30CCED" stroke="black" stroke-width="11" stroke-miterlimit="10" stroke-linecap="round"/>
<path fill-rule="evenodd" clip-rule="evenodd" d="M916.624 -168.151C588.783 -67.6082 306.119 108.658 104.903 338.031L-427.322 944.776C-427.538 945.023 -427.964 945.083 -428.273 944.911C-428.582 944.739 -428.657 944.4 -428.441 944.154L103.784 337.408C305.156 107.858 588.038 -68.5451 916.134 -169.166L1783.69 -435.314C1784.05 -435.422 1784.44 -435.282 1784.58 -435.002C1784.71 -434.722 1784.54 -434.407 1784.18 -434.299L916.624 -168.151Z" fill="#30CCED" stroke="black" stroke-width="11" stroke-miterlimit="10" stroke-linecap="round"/>
<path fill-rule="evenodd" clip-rule="evenodd" d="M954.436 -129.68C626.594 -29.1375 343.93 147.129 142.714 376.501L-389.511 983.247C-389.727 983.493 -390.153 983.553 -390.462 983.381C-390.771 983.209 -390.846 982.871 -390.63 982.624L141.595 375.879C342.967 146.329 625.849 -30.0744 953.945 -130.695L1821.5 -396.843C1821.86 -396.951 1822.25 -396.811 1822.39 -396.531C1822.52 -396.251 1822.35 -395.936 1822 -395.828L954.436 -129.68Z" fill="#30CCED" stroke="black" stroke-width="11" stroke-miterlimit="10" stroke-linecap="round"/>
<path fill-rule="evenodd" clip-rule="evenodd" d="M990.149 -93.346C662.308 7.19693 379.644 183.463 178.428 412.836L-353.797 1019.58C-354.013 1019.83 -354.439 1019.89 -354.748 1019.72C-355.057 1019.54 -355.132 1019.21 -354.916 1018.96L177.309 412.213C378.681 182.663 661.563 6.26009 989.659 -94.3606L1857.22 -360.509C1857.57 -360.616 1857.97 -360.477 1858.1 -360.197C1858.24 -359.916 1858.06 -359.602 1857.71 -359.494L990.149 -93.346Z" fill="#30CCED" stroke="black" stroke-width="11" stroke-miterlimit="10" stroke-linecap="round"/>
<path fill-rule="evenodd" clip-rule="evenodd" d="M1027.96 -54.8748C700.12 45.6681 417.456 221.935 216.241 451.307L-315.985 1058.05C-316.201 1058.3 -316.626 1058.36 -316.935 1058.19C-317.244 1058.02 -317.32 1057.68 -317.104 1057.43L215.122 450.684C416.493 221.134 699.376 44.7313 1027.47 -55.8894L1895.03 -322.037C1895.38 -322.145 1895.78 -322.006 1895.91 -321.725C1896.05 -321.445 1895.87 -321.131 1895.52 -321.023L1027.96 -54.8748Z" fill="#30CCED" stroke="black" stroke-width="11" stroke-miterlimit="10" stroke-linecap="round"/>
<path fill-rule="evenodd" clip-rule="evenodd" d="M1065.78 -16.4031C737.935 84.1398 455.271 260.406 254.055 489.779L-278.17 1096.52C-278.386 1096.77 -278.812 1096.83 -279.121 1096.66C-279.43 1096.49 -279.505 1096.15 -279.289 1095.9L252.936 489.156C454.308 259.606 737.19 83.203 1065.29 -17.4178L1932.85 -283.566C1933.2 -283.674 1933.59 -283.534 1933.73 -283.254C1933.86 -282.974 1933.69 -282.659 1933.34 -282.551L1065.78 -16.4031Z" fill="#30CCED" stroke="black" stroke-width="11" stroke-miterlimit="10" stroke-linecap="round"/>
<path fill-rule="evenodd" clip-rule="evenodd" d="M1103.59 22.0688C775.748 122.612 493.084 298.878 291.868 528.251L-240.357 1135C-240.573 1135.24 -240.999 1135.3 -241.308 1135.13C-241.617 1134.96 -241.692 1134.62 -241.476 1134.37L290.749 527.628C492.121 298.078 775.003 121.675 1103.1 21.0542L1970.66 -245.094C1971.01 -245.202 1971.41 -245.062 1971.54 -244.782C1971.68 -244.502 1971.5 -244.187 1971.15 -244.079L1103.59 22.0688Z" fill="#30CCED" stroke="black" stroke-width="11" stroke-miterlimit="10" stroke-linecap="round"/>
<path fill-rule="evenodd" clip-rule="evenodd" d="M1139.3 58.4026C811.461 158.945 528.797 335.212 327.582 564.585L-204.644 1171.33C-204.86 1171.58 -205.285 1171.64 -205.594 1171.46C-205.903 1171.29 -205.979 1170.95 -205.763 1170.71L326.463 563.962C527.834 334.412 810.717 158.009 1138.81 57.3879L2006.37 -208.76C2006.72 -208.868 2007.12 -208.728 2007.25 -208.448C2007.39 -208.168 2007.21 -207.853 2006.86 -207.745L1139.3 58.4026Z" fill="#30CCED" stroke="black" stroke-width="11" stroke-miterlimit="10" stroke-linecap="round"/>
<path fill-rule="evenodd" clip-rule="evenodd" d="M1177.12 96.874C849.274 197.417 566.611 373.683 365.395 603.056L-166.83 1209.8C-167.046 1210.05 -167.472 1210.11 -167.781 1209.94C-168.09 1209.76 -168.165 1209.42 -167.949 1209.18L364.276 602.433C565.648 372.883 848.53 196.48 1176.63 95.8593L2044.19 -170.289C2044.54 -170.397 2044.93 -170.257 2045.07 -169.977C2045.2 -169.696 2045.03 -169.382 2044.68 -169.274L1177.12 96.874Z" fill="#30CCED" stroke="black" stroke-width="11" stroke-miterlimit="10" stroke-linecap="round"/>
<path fill-rule="evenodd" clip-rule="evenodd" d="M1214.93 135.346C887.087 235.889 604.423 412.156 403.208 641.528L-129.018 1248.27C-129.234 1248.52 -129.659 1248.58 -129.968 1248.41C-130.277 1248.24 -130.353 1247.9 -130.137 1247.65L402.089 640.906C603.46 411.355 886.343 234.952 1214.44 134.332L2082 -131.816C2082.35 -131.924 2082.74 -131.784 2082.88 -131.504C2083.02 -131.224 2082.84 -130.909 2082.49 -130.802L1214.93 135.346Z" fill="#30CCED" stroke="black" stroke-width="11" stroke-miterlimit="10" stroke-linecap="round"/>
<path fill-rule="evenodd" clip-rule="evenodd" d="M1252.74 173.818C924.9 274.361 642.237 450.627 441.021 680L-91.2045 1286.75C-91.4204 1286.99 -91.8459 1287.05 -92.1549 1286.88C-92.4639 1286.71 -92.5394 1286.37 -92.3235 1286.12L439.902 679.377C641.274 449.827 924.156 273.424 1252.25 172.803L2119.85 -93.3023C2120.21 -93.4102 2120.6 -93.2705 2120.74 -92.9903C2120.87 -92.7102 2120.7 -92.3955 2120.34 -92.2876L1252.74 173.818Z" fill="#30CCED" stroke="black" stroke-width="11" stroke-miterlimit="10" stroke-linecap="round"/>
<path fill-rule="evenodd" clip-rule="evenodd" d="M1290.56 212.289C962.716 312.832 680.052 489.098 478.836 718.471L-53.3891 1325.22C-53.605 1325.46 -54.0305 1325.52 -54.3395 1325.35C-54.6485 1325.18 -54.724 1324.84 -54.5081 1324.59L477.718 717.848C679.089 488.298 961.971 311.895 1290.07 211.274L2157.67 -54.8309C2158.02 -54.9387 2158.42 -54.7991 2158.55 -54.5189C2158.69 -54.2387 2158.51 -53.9241 2158.16 -53.8162L1290.56 212.289Z" fill="#30CCED" stroke="black" stroke-width="11" stroke-miterlimit="10" stroke-linecap="round"/>
<path fill-rule="evenodd" clip-rule="evenodd" d="M1328.37 250.76C1000.53 351.303 717.864 527.569 516.648 756.942L-15.5775 1363.69C-15.7935 1363.93 -16.219 1363.99 -16.528 1363.82C-16.837 1363.65 -16.9125 1363.31 -16.6966 1363.06L515.529 756.319C716.901 526.769 999.783 350.366 1327.88 249.745L2195.48 -16.36C2195.83 -16.4678 2196.23 -16.3281 2196.36 -16.0479C2196.5 -15.7678 2196.32 -15.4531 2195.97 -15.3452L1328.37 250.76Z" fill="#30CCED" stroke="black" stroke-width="11" stroke-miterlimit="10" stroke-linecap="round"/>
<path fill-rule="evenodd" clip-rule="evenodd" d="M1366.19 289.231C1038.35 389.774 755.682 566.041 554.466 795.413L22.2403 1402.16C22.0244 1402.4 21.5989 1402.46 21.2899 1402.29C20.9809 1402.12 20.9054 1401.78 21.1213 1401.54L553.347 794.79C754.718 565.24 1037.6 388.837 1365.7 288.217L2233.3 22.1112C2233.65 22.0034 2234.05 22.143 2234.18 22.4233C2234.32 22.7034 2234.14 23.0181 2233.79 23.126L1366.19 289.231Z" fill="#30CCED" stroke="black" stroke-width="11" stroke-miterlimit="10" stroke-linecap="round"/>
<path fill-rule="evenodd" clip-rule="evenodd" d="M1403.99 327.703C1076.15 428.246 793.488 604.513 592.273 833.885L60.047 1440.63C59.8311 1440.88 59.4055 1440.94 59.0965 1440.77C58.7875 1440.59 58.712 1440.25 58.9279 1440.01L591.154 833.262C792.525 603.712 1075.41 427.309 1403.5 326.689L2271.11 60.5834C2271.46 60.4756 2271.85 60.6152 2271.99 60.8954C2272.12 61.1756 2271.95 61.4902 2271.6 61.5981L1403.99 327.703Z" fill="#30CCED" stroke="black" stroke-width="11" stroke-miterlimit="10" stroke-linecap="round"/>
<path fill-rule="evenodd" clip-rule="evenodd" d="M1439.71 364.037C1111.87 464.58 829.205 640.847 627.989 870.219L95.7638 1476.96C95.5479 1477.21 95.1223 1477.27 94.8133 1477.1C94.5043 1476.93 94.4288 1476.59 94.6447 1476.34L626.87 869.596C828.242 640.046 1111.12 463.643 1439.22 363.023L2306.82 96.9174C2307.17 96.8096 2307.57 96.9492 2307.7 97.2294C2307.84 97.5096 2307.66 97.8242 2307.31 97.9321L1439.71 364.037Z" fill="#30CCED" stroke="black" stroke-width="11" stroke-miterlimit="10" stroke-linecap="round"/>
<path fill-rule="evenodd" clip-rule="evenodd" d="M1477.53 402.509C1149.68 503.052 867.02 679.318 665.804 908.691L133.579 1515.44C133.363 1515.68 132.937 1515.74 132.628 1515.57C132.319 1515.4 132.244 1515.06 132.46 1514.81L664.685 908.068C866.057 678.518 1148.94 502.115 1477.03 401.494L2344.64 135.389C2344.99 135.281 2345.38 135.421 2345.52 135.701C2345.65 135.981 2345.48 136.296 2345.13 136.404L1477.53 402.509Z" fill="#30CCED" stroke="black" stroke-width="11" stroke-miterlimit="10" stroke-linecap="round"/>
<path fill-rule="evenodd" clip-rule="evenodd" d="M1515.34 440.981C1187.5 541.524 904.833 717.791 703.618 947.163L171.392 1553.91C171.176 1554.15 170.751 1554.21 170.442 1554.04C170.133 1553.87 170.057 1553.53 170.273 1553.29L702.499 946.54C903.87 716.99 1186.75 540.587 1514.85 439.967L2382.45 173.861C2382.8 173.753 2383.2 173.893 2383.33 174.173C2383.47 174.453 2383.29 174.768 2382.94 174.876L1515.34 440.981Z" fill="#30CCED" stroke="black" stroke-width="11" stroke-miterlimit="10" stroke-linecap="round"/>
<path fill-rule="evenodd" clip-rule="evenodd" d="M1553.15 479.453C1225.31 579.996 942.647 756.263 741.432 985.635L209.206 1592.38C208.99 1592.63 208.565 1592.69 208.256 1592.52C207.947 1592.34 207.871 1592 208.087 1591.76L740.313 985.012C941.684 755.462 1224.57 579.059 1552.66 478.439L2420.26 212.333C2420.62 212.226 2421.01 212.365 2421.15 212.645C2421.28 212.926 2421.11 213.24 2420.75 213.348L1553.15 479.453Z" fill="#30CCED" stroke="black" stroke-width="11" stroke-miterlimit="10" stroke-linecap="round"/>
<path fill-rule="evenodd" clip-rule="evenodd" d="M1588.86 515.787C1261.02 616.33 978.358 792.597 777.143 1021.97L244.917 1628.71C244.701 1628.96 244.276 1629.02 243.967 1628.85C243.658 1628.68 243.582 1628.34 243.798 1628.09L776.024 1021.35C977.395 791.796 1260.28 615.393 1588.37 514.773L2455.98 248.667C2456.33 248.56 2456.72 248.699 2456.86 248.979C2456.99 249.259 2456.82 249.574 2456.47 249.682L1588.86 515.787Z" fill="#30CCED" stroke="black" stroke-width="11" stroke-miterlimit="10" stroke-linecap="round"/>
<path fill-rule="evenodd" clip-rule="evenodd" d="M1626.68 554.259C1298.83 654.802 1016.17 831.068 814.954 1060.44L282.729 1667.19C282.513 1667.43 282.087 1667.49 281.778 1667.32C281.469 1667.15 281.394 1666.81 281.61 1666.56L813.835 1059.82C1015.21 830.268 1298.09 653.865 1626.18 553.244L2493.79 287.139C2494.14 287.031 2494.53 287.171 2494.67 287.451C2494.8 287.731 2494.63 288.046 2494.28 288.154L1626.68 554.259Z" fill="#30CCED" stroke="black" stroke-width="11" stroke-miterlimit="10" stroke-linecap="round"/>
<path fill-rule="evenodd" clip-rule="evenodd" d="M1664.49 592.73C1336.65 693.273 1053.99 869.539 852.771 1098.91L320.545 1705.66C320.33 1705.9 319.904 1705.96 319.595 1705.79C319.286 1705.62 319.211 1705.28 319.426 1705.03L851.652 1098.29C1053.02 868.739 1335.91 692.336 1664 591.715L2531.6 325.61C2531.96 325.502 2532.35 325.642 2532.49 325.922C2532.62 326.202 2532.45 326.517 2532.09 326.624L1664.49 592.73Z" fill="#30CCED" stroke="black" stroke-width="11" stroke-miterlimit="10" stroke-linecap="round"/>
<path fill-rule="evenodd" clip-rule="evenodd" d="M1702.31 631.201C1374.46 731.744 1091.8 908.011 890.585 1137.38L358.359 1744.13C358.143 1744.38 357.718 1744.44 357.409 1744.26C357.099 1744.09 357.024 1743.75 357.24 1743.51L889.466 1136.76C1090.84 907.21 1373.72 730.807 1701.82 630.187L2569.42 364.081C2569.77 363.974 2570.16 364.113 2570.3 364.393C2570.43 364.674 2570.26 364.988 2569.91 365.096L1702.31 631.201Z" fill="#30CCED" stroke="black" stroke-width="11" stroke-miterlimit="10" stroke-linecap="round"/>
<path fill-rule="evenodd" clip-rule="evenodd" d="M1738.02 667.536C1410.17 768.079 1127.51 944.346 926.295 1173.72L394.069 1780.46C393.854 1780.71 393.428 1780.77 393.119 1780.6C392.81 1780.43 392.735 1780.09 392.95 1779.84L925.176 1173.1C1126.55 943.545 1409.43 767.142 1737.53 666.522L2605.13 400.416C2605.48 400.309 2605.87 400.448 2606.01 400.728C2606.15 401.009 2605.97 401.323 2605.62 401.431L1738.02 667.536Z" fill="#30CCED" stroke="black" stroke-width="11" stroke-miterlimit="10" stroke-linecap="round"/>
<path fill-rule="evenodd" clip-rule="evenodd" d="M1775.83 706.008C1447.99 806.551 1165.33 982.817 964.111 1212.19L431.886 1818.94C431.67 1819.18 431.244 1819.24 430.935 1819.07C430.626 1818.9 430.551 1818.56 430.767 1818.31L962.992 1211.57C1164.36 982.017 1447.25 805.614 1775.34 704.993L2642.94 438.888C2643.3 438.78 2643.69 438.92 2643.83 439.2C2643.96 439.48 2643.79 439.795 2643.43 439.903L1775.83 706.008Z" fill="#30CCED" stroke="black" stroke-width="11" stroke-miterlimit="10" stroke-linecap="round"/>
<path fill-rule="evenodd" clip-rule="evenodd" d="M1813.65 744.479C1485.8 845.022 1203.14 1021.29 1001.92 1250.66L469.699 1857.41C469.483 1857.65 469.057 1857.71 468.748 1857.54C468.439 1857.37 468.364 1857.03 468.58 1856.78L1000.81 1250.04C1202.18 1020.49 1485.06 844.085 1813.15 743.464L2680.76 477.359C2681.11 477.251 2681.5 477.391 2681.64 477.671C2681.77 477.951 2681.6 478.266 2681.25 478.374L1813.65 744.479Z" fill="#30CCED" stroke="black" stroke-width="11" stroke-miterlimit="10" stroke-linecap="round"/>
<path fill-rule="evenodd" clip-rule="evenodd" d="M1851.46 782.951C1523.61 883.494 1240.95 1059.76 1039.73 1289.13L507.509 1895.88C507.293 1896.12 506.867 1896.18 506.558 1896.01C506.249 1895.84 506.174 1895.5 506.39 1895.26L1038.62 1288.51C1239.99 1058.96 1522.87 882.557 1850.96 781.936L2718.57 515.831C2718.92 515.723 2719.31 515.863 2719.45 516.143C2719.58 516.423 2719.41 516.738 2719.06 516.846L1851.46 782.951Z" fill="#30CCED" stroke="black" stroke-width="11" stroke-miterlimit="10" stroke-linecap="round"/>
<path fill-rule="evenodd" clip-rule="evenodd" d="M1880.28 816.683C1552.44 917.226 1269.78 1093.49 1068.56 1322.87L536.338 1929.61C536.122 1929.86 535.697 1929.92 535.388 1929.75C535.079 1929.57 535.003 1929.23 535.219 1928.99L1067.44 1322.24C1268.82 1092.69 1551.7 916.289 1879.79 815.669L2747.4 549.563C2747.75 549.456 2748.14 549.595 2748.28 549.875C2748.41 550.156 2748.24 550.47 2747.89 550.578L1880.28 816.683Z" fill="#30CCED" stroke="black" stroke-width="11" stroke-miterlimit="10" stroke-linecap="round"/>
<path fill-rule="evenodd" clip-rule="evenodd" d="M1918.1 855.155C1590.26 955.698 1307.59 1131.96 1106.38 1361.34L574.151 1968.08C573.935 1968.33 573.51 1968.39 573.201 1968.22C572.892 1968.05 572.816 1967.71 573.032 1967.46L1105.26 1360.71C1306.63 1131.16 1589.51 954.762 1917.61 854.141L2785.21 588.036C2785.56 587.928 2785.96 588.067 2786.09 588.348C2786.23 588.628 2786.05 588.942 2785.7 589.05L1918.1 855.155Z" fill="#30CCED" stroke="black" stroke-width="11" stroke-miterlimit="10" stroke-linecap="round"/>
<path fill-rule="evenodd" clip-rule="evenodd" d="M1955.91 893.627C1628.07 994.17 1345.41 1170.44 1144.19 1399.81L611.964 2006.55C611.748 2006.8 611.323 2006.86 611.014 2006.69C610.705 2006.52 610.629 2006.18 610.845 2005.93L1143.07 1399.19C1344.44 1169.64 1627.32 993.233 1955.42 892.613L2823.02 626.507C2823.37 626.399 2823.77 626.539 2823.9 626.819C2824.04 627.099 2823.86 627.414 2823.51 627.522L1955.91 893.627Z" fill="#30CCED" stroke="black" stroke-width="11" stroke-miterlimit="10" stroke-linecap="round"/>
<path fill-rule="evenodd" clip-rule="evenodd" d="M1993.72 932.098C1665.88 1032.64 1383.22 1208.91 1182 1438.28L649.777 2045.03C649.562 2045.27 649.136 2045.33 648.827 2045.16C648.518 2044.99 648.443 2044.65 648.658 2044.4L1180.88 1437.66C1382.26 1208.11 1665.14 1031.7 1993.23 931.083L2860.84 664.978C2861.19 664.87 2861.58 665.01 2861.72 665.29C2861.85 665.57 2861.68 665.885 2861.33 665.993L1993.72 932.098Z" fill="#30CCED" stroke="black" stroke-width="11" stroke-miterlimit="10" stroke-linecap="round"/>
<path fill-rule="evenodd" clip-rule="evenodd" d="M2029.44 968.433C1701.6 1068.98 1418.93 1245.24 1217.72 1474.61L685.491 2081.36C685.275 2081.61 684.849 2081.67 684.54 2081.49C684.231 2081.32 684.156 2080.98 684.372 2080.74L1216.6 1473.99C1417.97 1244.44 1700.85 1068.04 2028.95 967.418L2896.55 701.313C2896.9 701.205 2897.3 701.345 2897.43 701.625C2897.57 701.905 2897.39 702.22 2897.04 702.328L2029.44 968.433Z" fill="#30CCED" stroke="black" stroke-width="11" stroke-miterlimit="10" stroke-linecap="round"/>
<path fill-rule="evenodd" clip-rule="evenodd" d="M2067.25 1006.9C1739.41 1107.45 1456.75 1283.71 1255.53 1513.09L723.304 2119.83C723.088 2120.08 722.662 2120.14 722.353 2119.97C722.044 2119.79 721.969 2119.46 722.185 2119.21L1254.41 1512.46C1455.78 1282.91 1738.66 1106.51 2066.76 1005.89L2934.36 739.784C2934.71 739.676 2935.11 739.816 2935.24 740.096C2935.38 740.376 2935.2 740.691 2934.85 740.799L2067.25 1006.9Z" fill="#30CCED" stroke="black" stroke-width="11" stroke-miterlimit="10" stroke-linecap="round"/>
<path fill-rule="evenodd" clip-rule="evenodd" d="M2105.06 1045.38C1777.22 1145.92 1494.56 1322.19 1293.34 1551.56L761.118 2158.3C760.902 2158.55 760.476 2158.61 760.167 2158.44C759.858 2158.27 759.783 2157.93 759.999 2157.68L1292.22 1550.94C1493.6 1321.39 1776.48 1144.98 2104.57 1044.36L2972.18 778.256C2972.53 778.148 2972.92 778.288 2973.06 778.568C2973.19 778.849 2973.02 779.163 2972.67 779.271L2105.06 1045.38Z" fill="#30CCED" stroke="black" stroke-width="11" stroke-miterlimit="10" stroke-linecap="round"/>
<path fill-rule="evenodd" clip-rule="evenodd" d="M2142.88 1083.85C1815.04 1184.39 1532.37 1360.66 1331.16 1590.03L798.931 2196.78C798.715 2197.02 798.289 2197.08 797.98 2196.91C797.671 2196.74 797.596 2196.4 797.812 2196.15L1330.04 1589.41C1531.41 1359.86 1814.29 1183.45 2142.39 1082.83L3009.99 816.728C3010.34 816.62 3010.74 816.76 3010.87 817.04C3011.01 817.32 3010.83 817.635 3010.48 817.743L2142.88 1083.85Z" fill="#30CCED" stroke="black" stroke-width="11" stroke-miterlimit="10" stroke-linecap="round"/>
<path fill-rule="evenodd" clip-rule="evenodd" d="M2178.59 1120.18C1850.75 1220.72 1568.09 1396.99 1366.87 1626.36L834.644 2233.11C834.428 2233.36 834.003 2233.42 833.694 2233.24C833.385 2233.07 833.309 2232.73 833.525 2232.49L1365.75 1625.74C1567.12 1396.19 1850 1219.79 2178.1 1119.17L3045.7 853.062C3046.05 852.954 3046.45 853.094 3046.58 853.374C3046.72 853.654 3046.54 853.969 3046.19 854.077L2178.59 1120.18Z" fill="#30CCED" stroke="black" stroke-width="11" stroke-miterlimit="10" stroke-linecap="round"/>
<path fill-rule="evenodd" clip-rule="evenodd" d="M2216.4 1158.65C1888.56 1259.2 1605.9 1435.46 1404.68 1664.84L872.457 2271.58C872.241 2271.83 871.816 2271.89 871.507 2271.72C871.198 2271.54 871.122 2271.21 871.338 2270.96L1403.56 1664.21C1604.94 1434.66 1887.82 1258.26 2215.91 1157.64L3083.52 891.535C3083.87 891.427 3084.26 891.566 3084.4 891.847C3084.53 892.127 3084.36 892.441 3084.01 892.549L2216.4 1158.65Z" fill="#30CCED" stroke="black" stroke-width="11" stroke-miterlimit="10" stroke-linecap="round"/>
<path fill-rule="evenodd" clip-rule="evenodd" d="M2254.22 1197.13C1926.38 1297.67 1643.71 1473.93 1442.5 1703.31L910.271 2310.05C910.055 2310.3 909.629 2310.36 909.32 2310.19C909.011 2310.02 908.936 2309.68 909.152 2309.43L1441.38 1702.68C1642.75 1473.13 1925.63 1296.73 2253.73 1196.11L3121.33 930.005C3121.68 929.898 3122.08 930.037 3122.21 930.317C3122.35 930.598 3122.17 930.912 3121.82 931.02L2254.22 1197.13Z" fill="#30CCED" stroke="black" stroke-width="11" stroke-miterlimit="10" stroke-linecap="round"/>
<path fill-rule="evenodd" clip-rule="evenodd" d="M2292.03 1235.6C1964.19 1336.14 1681.52 1512.4 1480.31 1741.78L948.083 2348.52C947.867 2348.77 947.441 2348.83 947.132 2348.66C946.823 2348.49 946.748 2348.15 946.964 2347.9L1479.19 1741.15C1680.56 1511.6 1963.44 1335.2 2291.54 1234.58L3159.14 968.475C3159.49 968.368 3159.89 968.507 3160.02 968.788C3160.16 969.068 3159.98 969.382 3159.63 969.49L2292.03 1235.6Z" fill="#30CCED" stroke="black" stroke-width="11" stroke-miterlimit="10" stroke-linecap="round"/>
</mask>
<g mask="url(#mask0_764_928)">
<rect width="2261" height="1272" fill="#1CB4E2"/>
</g>
</g>
</g>
<defs>
<clipPath id="clip0_764_928">
<rect width="2261" height="1272" fill="white"/>
</clipPath>
</defs>
</svg>
