<svg width="359" height="359" viewBox="0 0 359 359" fill="none" xmlns="http://www.w3.org/2000/svg">
<path d="M74.4793 273.184L47.2965 257.472C46.599 257.065 46.0199 256.483 45.617 255.782C45.2141 255.082 45.0014 254.288 45 253.479V106.131C45.0014 105.322 45.2141 104.528 45.617 103.828C46.0199 103.127 46.599 102.544 47.2965 102.138L60.9601 94.2386C61.6466 93.8547 62.4198 93.6532 63.2061 93.6532C63.9924 93.6532 64.7655 93.8547 65.4521 94.2386L99.6688 112.684C100.369 113.066 101.157 113.259 101.954 113.243C102.751 113.228 103.53 113.004 104.215 112.596C104.9 112.187 105.467 111.607 105.86 110.912C106.253 110.217 106.459 109.432 106.457 108.634V70.5847C106.457 69.7743 106.671 68.9781 107.077 68.277C107.483 67.5758 108.066 66.9945 108.768 66.5918L176.119 27.646C176.829 27.2232 177.639 27 178.466 27C179.292 27 180.103 27.2232 180.813 27.646L249.318 69.4852C249.992 69.8966 250.55 70.4745 250.937 71.1636C251.324 71.8526 251.527 72.6297 251.528 73.4203V163.32C251.526 164.122 251.315 164.911 250.916 165.607C250.517 166.303 249.943 166.883 249.252 167.289C248.56 167.695 247.775 167.913 246.974 167.923C246.172 167.932 245.383 167.732 244.682 167.341L217.499 152.136C216.788 151.733 216.195 151.149 215.782 150.443C215.368 149.737 215.149 148.933 215.145 148.115V91.0992C215.144 90.2908 214.931 89.4968 214.528 88.7962C214.125 88.0957 213.546 87.5131 212.848 87.1063L182.127 69.355C181.429 68.9498 180.637 68.7364 179.831 68.7364C179.024 68.7364 178.232 68.9498 177.534 69.355L145.152 88.0756C144.46 88.4741 143.883 89.0469 143.481 89.7371C143.078 90.4274 142.862 91.2112 142.855 92.0107V134.689C142.852 135.498 143.063 136.294 143.466 136.995C143.87 137.697 144.451 138.279 145.152 138.682L269.698 210.714C270.398 211.117 271.192 211.329 271.999 211.328C272.806 211.328 273.599 211.114 274.299 210.71C274.998 210.306 275.579 209.724 275.983 209.024C276.387 208.324 276.601 207.53 276.602 206.721V90.9835C276.602 90.1727 276.815 89.3761 277.22 88.674C277.625 87.972 278.208 87.3892 278.909 86.9844C279.611 86.5795 280.406 86.367 281.216 86.3681C282.025 86.3692 282.82 86.5839 283.521 86.9906L310.689 102.702C311.391 103.105 311.975 103.686 312.381 104.387C312.786 105.088 313 105.884 313 106.695V255.649C313 256.46 312.786 257.256 312.381 257.957C311.975 258.658 311.391 259.24 310.689 259.642L298.065 266.876C297.368 267.281 296.575 267.495 295.769 267.495C294.962 267.495 294.17 267.281 293.472 266.876L258.432 246.622C257.732 246.219 256.939 246.007 256.132 246.008C255.324 246.008 254.531 246.222 253.832 246.626C253.133 247.03 252.552 247.612 252.147 248.312C251.743 249.012 251.53 249.806 251.528 250.615V291.123C251.531 291.932 251.32 292.728 250.917 293.429C250.514 294.131 249.932 294.713 249.232 295.116L183.167 333.382C182.467 333.787 181.672 334 180.863 334C180.054 334 179.26 333.787 178.559 333.382L108.768 293.004C108.065 292.602 107.481 292.021 107.075 291.32C106.669 290.618 106.456 289.822 106.457 289.011V195.292C106.459 194.483 106.672 193.689 107.077 192.989C107.481 192.289 108.062 191.708 108.761 191.303C109.46 190.899 110.253 190.686 111.061 190.685C111.868 190.684 112.661 190.896 113.361 191.299L140.544 207.025C141.246 207.428 141.83 208.009 142.236 208.71C142.641 209.411 142.855 210.208 142.855 211.018V268.424C142.855 269.251 143.076 270.063 143.495 270.775C143.914 271.487 144.516 272.074 145.238 272.475L177.982 290.4C178.67 290.787 179.446 290.991 180.235 290.991C181.024 290.991 181.8 290.787 182.488 290.4L213.383 272.533C214.08 272.126 214.659 271.543 215.062 270.843C215.465 270.142 215.678 269.348 215.679 268.54V224.617C215.678 223.809 215.465 223.015 215.062 222.314C214.659 221.614 214.08 221.031 213.383 220.624L88.2873 148.288C87.5873 147.885 86.7939 147.673 85.9865 147.674C85.1791 147.675 84.3861 147.888 83.6869 148.292C82.9877 148.697 82.4068 149.278 82.0025 149.978C81.5982 150.678 81.3847 151.472 81.3833 152.281V269.191C81.3819 269.999 81.1684 270.794 80.7641 271.494C80.3598 272.194 79.7789 272.775 79.0797 273.179C78.3805 273.584 77.5875 273.797 76.7801 273.798C75.9727 273.798 75.1792 273.587 74.4793 273.184Z" fill="url(#paint0_linear_724_112)"/>
<defs>
<linearGradient id="paint0_linear_724_112" x1="179" y1="27" x2="179" y2="334" gradientUnits="userSpaceOnUse">
<stop stop-color="#42E2F7"/>
<stop offset="1" stop-color="#1CB4E2"/>
</linearGradient>
</defs>
</svg>
